<?xml version="1.0" encoding="utf-8"?>
<!-- Generator: Adobe Illustrator 26.4.1, SVG Export Plug-In . SVG Version: 6.00 Build 0)  -->
<svg version="1.1" id="Layer_1" xmlns="http://www.w3.org/2000/svg" xmlns:xlink="http://www.w3.org/1999/xlink" x="0px" y="0px"
	 viewBox="0 0 93 109" style="enable-background:new 0 0 93 109;" xml:space="preserve">
<style type="text/css">
	.st0{fill:#0D427F;}
	.st1{fill:url(#SVGID_1_);}
	.st2{fill:#A9A7A7;}
	.st3{fill:#4B566B;}
	.st4{fill:#757474;}
	.st5{fill:url(#SVGID_00000117649847558113125740000018436629711265049528_);}
	.st6{fill:#F6F9FC;}
	.st7{fill:url(#SVGID_00000160187229548712281890000000085151258755274374_);}
	.st8{fill:url(#SVGID_00000096029449191817227710000014228911804848430723_);}
	.st9{fill:#123A78;}
</style>
<path class="st0" d="M79.8,105.6H13.2c-5,0-9-4-9-9V6c0-1.5,1.2-2.6,2.6-2.6h79.3c1.5,0,2.6,1.2,2.6,2.6v90.6
	C88.8,101.6,84.8,105.6,79.8,105.6z"/>
<linearGradient id="SVGID_1_" gradientUnits="userSpaceOnUse" x1="79.7008" y1="7.095958e-02" x2="79.7008" y2="138.4426">
	<stop  offset="0" style="stop-color:#4AACEA;stop-opacity:0.9"/>
	<stop  offset="0.1573" style="stop-color:#46A5E3;stop-opacity:0.8738"/>
	<stop  offset="0.3884" style="stop-color:#3B91CF;stop-opacity:0.8352"/>
	<stop  offset="0.6639" style="stop-color:#2871AF;stop-opacity:0.7893"/>
	<stop  offset="0.6788" style="stop-color:#276FAD;stop-opacity:0.7868"/>
	<stop  offset="0.9626" style="stop-color:#104684;stop-opacity:0.7081"/>
	<stop  offset="0.9916" style="stop-color:#0D427F;stop-opacity:0.7"/>
</linearGradient>
<path class="st1" d="M88.8,6v90.6c0,5-4,9-9,9h-9.2c5,0,9-4,9-9V6c0-1.5-1.2-2.6-2.6-2.6h9.2C87.6,3.4,88.8,4.6,88.8,6z"/>
<path class="st2" d="M88.8,6v14.6H4.2V6c0-1.5,1.2-2.6,2.6-2.6h79.3C87.6,3.4,88.8,4.6,88.8,6z"/>
<path class="st3" d="M15.3,12v8.6H4.2L15.3,12z"/>
<path class="st3" d="M77.7,12v8.6h11.1L77.7,12z"/>
<path class="st4" d="M86.2,3.4L77.7,12l11.1,8.6V6C88.8,4.6,87.6,3.4,86.2,3.4z"/>
<path class="st4" d="M6.8,3.4l8.4,8.6L4.2,20.6V6C4.2,4.6,5.4,3.4,6.8,3.4z"/>
<linearGradient id="SVGID_00000147209082189127696010000015491520644867575469_" gradientUnits="userSpaceOnUse" x1="46.4995" y1="32.9599" x2="46.4995" y2="139.3566">
	<stop  offset="0" style="stop-color:#4AACEA;stop-opacity:0.9"/>
	<stop  offset="6.258921e-02" style="stop-color:#46A5E3;stop-opacity:0.8738"/>
	<stop  offset="0.1546" style="stop-color:#3B91CF;stop-opacity:0.8352"/>
	<stop  offset="0.2642" style="stop-color:#2871AF;stop-opacity:0.7893"/>
	<stop  offset="0.2701" style="stop-color:#276FAD;stop-opacity:0.7868"/>
	<stop  offset="0.4824" style="stop-color:#104684;stop-opacity:0.7081"/>
	<stop  offset="0.5041" style="stop-color:#0D427F;stop-opacity:0.7"/>
</linearGradient>
<path style="fill:url(#SVGID_00000147209082189127696010000015491520644867575469_);" d="M46.5,82.4c-11.7,0-21.2-9.5-21.2-21.2
	V45.5c0-1.1,0.9-2,2-2c1.1,0,2,0.9,2,2v15.7c0,9.5,7.7,17.3,17.3,17.3c9.5,0,17.3-7.8,17.3-17.3V45.4c0-1.1,0.9-2,2-2
	c1.1,0,2,0.9,2,2v15.8C67.7,72.9,58.2,82.4,46.5,82.4z"/>
<path class="st6" d="M46.5,75.8c-11.7,0-21.2-9.5-21.2-21.2V38.9c0-1.1,0.9-1.9,1.9-1.9c1.1,0,1.9,0.9,1.9,1.9v15.7
	c0,9.5,7.8,17.3,17.3,17.3s17.3-7.8,17.3-17.3V38.8c0-1.1,0.9-1.9,1.9-1.9c1.1,0,1.9,0.9,1.9,1.9v15.8
	C67.7,66.3,58.2,75.8,46.5,75.8z"/>
<path class="st4" d="M65.7,38.9c2.4,0,4.4-2,4.4-4.4c0-2.4-2-4.4-4.4-4.4c-2.4,0-4.4,2-4.4,4.4C61.3,37,63.3,38.9,65.7,38.9z"/>
<path class="st4" d="M27.3,38.9c2.4,0,4.4-2,4.4-4.4c0-2.4-2-4.4-4.4-4.4c-2.4,0-4.4,2-4.4,4.4C22.9,37,24.9,38.9,27.3,38.9z"/>
<g>
	
		<linearGradient id="SVGID_00000183214167974386082740000001369850176667870876_" gradientUnits="userSpaceOnUse" x1="629.39" y1="-239.24" x2="676.9031" y2="-239.24">
		<stop  offset="1.614687e-07" style="stop-color:#4AACEA"/>
		<stop  offset="0.5" style="stop-color:#4AACEA;stop-opacity:0.9"/>
		<stop  offset="1" style="stop-color:#4AACEA;stop-opacity:0.7"/>
	</linearGradient>
	<path style="fill:url(#SVGID_00000183214167974386082740000001369850176667870876_);" d="M629.4-246c4.8,8.1,13.6,13.6,23.8,13.6
		s18.9-5.4,23.8-13.6H629.4z"/>
	
		<linearGradient id="SVGID_00000047058395860414608830000012897277198535520954_" gradientUnits="userSpaceOnUse" x1="538.1431" y1="-230.3378" x2="741.6197" y2="-230.3378">
		<stop  offset="1.614687e-07" style="stop-color:#4AACEA"/>
		<stop  offset="0.5" style="stop-color:#4AACEA;stop-opacity:0.9"/>
		<stop  offset="1" style="stop-color:#4AACEA;stop-opacity:0.7"/>
	</linearGradient>
	<path style="fill:url(#SVGID_00000047058395860414608830000012897277198535520954_);" d="M741.1-235.8c-0.3-0.6-0.7-1.4-1.5-1.8
		c-0.5-0.2-1-0.2-1.3-0.1c-1.8,1.2-3.3,2-4.2,2.4c-7.8,3.6-19,4.6-21.2,4.4c-0.2,0-0.8-0.1-0.9,0.2c-0.1,0.3,0.6,0.9,1.3,1.3
		c2.6,1.3,5.2,2.6,7.7,3.8c-13.4,23.2-38,38.7-66,38.7c-42.4,0-76.8-35.5-76.8-79.3c0-3.4,0.2-6.7,0.6-9.9c0.1-0.3,0.1-0.6,0.1-0.8
		c0.1-1.1,1-5.7,2.4-12.2c0-0.2-0.2-0.5-0.5-0.8c-0.1-0.1-0.2-0.2-0.3-0.2c0,0-0.1,0-0.1,0c-0.1,0-0.1-0.1-0.2-0.1c0,0-0.1,0-0.1,0
		c0,0-0.1,0-0.1,0c-0.1,0-0.2,0-0.2-0.1c-18.7,0-32.4,0-33.2,0c-0.2,0-0.6,0-1.1,0.3c-0.3,0.2-0.4,0.4-0.5,0.5
		c-2.3,4.6-4.5,9.3-6.8,13.9c0,0-0.1,0.4,0.2,0.7c0.2,0.3,0.5,0.3,0.6,0.2c4.1,0.1,8.2,0.1,12.3,0.2c3.8,0.2,7.5,0.2,11.2,0.1
		c0,0,0,0,0,0c-0.2,2.7-0.3,5.3-0.3,8.1c0,52.9,41.6,95.8,92.8,95.8c34.4,0,64.5-19.4,80.5-48.1c0,0,0,0,0,0c1-1.7,1.8-3.1,2.3-4.2
		c1.7-3.2,3.8-7.5,3.8-10.7C741.6-233.6,741.6-234.7,741.1-235.8z"/>
</g>
<path class="st9" d="M-234.7,399h-313c-55,0-99.5-44.5-99.5-99.5v-313c0-55,44.5-99.5,99.5-99.5h313c55,0,99.5,44.5,99.5,99.5v313
	C-135.2,354.4-179.7,399-234.7,399z"/>
</svg>
