<svg width="25" height="28" viewBox="0 0 25 28" fill="none" xmlns="http://www.w3.org/2000/svg">
<path fill-rule="evenodd" clip-rule="evenodd" d="M14.5526 6.61496H20.5044C22.4284 6.61496 23.9947 8.31488 24 10.405V22.2886C24 24.3786 22.4337 26.0785 20.5097 26.0785H20.0181C19.9631 26.6018 19.5231 26.9993 18.9979 27H17.3858C16.8613 26.9983 16.4223 26.6011 16.3674 26.0785H8.62732C8.57237 26.6018 8.13233 26.9993 7.60717 27H6.00031C5.47582 26.9983 5.0368 26.6011 4.98192 26.0785H4.48859C2.56458 26.0785 1 24.3786 1 22.2886V10.4067C1 8.31665 2.56458 6.61496 4.48859 6.61496H10.4403L6.07431 2.43663C5.85332 2.23476 5.75875 1.92884 5.82716 1.63716C5.89557 1.34549 6.11625 1.11379 6.40385 1.03166C6.69144 0.949534 7.00089 1.02985 7.2125 1.24156L12.4982 6.29898L17.784 1.24156C18.1151 0.939071 18.6268 0.956903 18.9361 1.28171C19.2455 1.60652 19.2392 2.1194 18.9222 2.43663L14.5526 6.61496ZM20.5044 24.4263C21.5192 24.4263 22.3456 23.466 22.3456 22.2868V10.405C22.3456 9.22398 21.5192 8.26546 20.5044 8.26546H4.48859C3.47372 8.26546 2.64739 9.22398 2.64739 10.405V22.2868C2.64739 23.466 3.47372 24.4263 4.48859 24.4263H20.5044Z" fill="url(#paint0_linear_1982_6718)" stroke="url(#paint1_linear_1982_6718)"/>
<defs>
<linearGradient id="paint0_linear_1982_6718" x1="-6.44101" y1="19.638" x2="18.951" y2="42.5585" gradientUnits="userSpaceOnUse">
<stop stop-color="#EB6189"/>
<stop offset="1" stop-color="#5538AA"/>
</linearGradient>
<linearGradient id="paint1_linear_1982_6718" x1="1" y1="9.30748" x2="26.0976" y2="37.7927" gradientUnits="userSpaceOnUse">
<stop stop-color="#EB6189"/>
<stop offset="1" stop-color="#5538AA"/>
</linearGradient>
</defs>
</svg>
