<svg width="250" height="340" viewBox="0 0 250 340" fill="none" xmlns="http://www.w3.org/2000/svg">
<rect x="0.187622" width="249.797" height="340" rx="20" fill="#F4F4F5"/>
<path d="M149.667 138.053V127.28C149.667 123.04 147.96 121.333 143.72 121.333H132.947C128.707 121.333 127 123.04 127 127.28V138.053C127 142.293 128.707 144 132.947 144H143.72C147.96 144 149.667 142.293 149.667 138.053Z" stroke="#999999" stroke-width="3" stroke-linecap="round" stroke-linejoin="round"/>
<path d="M119 138.72V126.613C119 122.853 117.293 121.333 113.053 121.333H102.28C98.04 121.333 96.3334 122.853 96.3334 126.613V138.693C96.3334 142.48 98.04 143.973 102.28 143.973H113.053C117.293 144 119 142.48 119 138.72Z" stroke="#999999" stroke-width="3" stroke-linecap="round" stroke-linejoin="round"/>
<path d="M119 168.72V157.947C119 153.707 117.293 152 113.053 152H102.28C98.04 152 96.3334 153.707 96.3334 157.947V168.72C96.3334 172.96 98.04 174.667 102.28 174.667H113.053C117.293 174.667 119 172.96 119 168.72Z" stroke="#999999" stroke-width="3" stroke-linecap="round" stroke-linejoin="round"/>
<path d="M129.667 162.667H145.667" stroke="#999999" stroke-width="3" stroke-linecap="round"/>
<path d="M137.667 170.667V154.667" stroke="#999999" stroke-width="3" stroke-linecap="round"/>
<rect x="15" y="238" width="220" height="82" rx="6" fill="white" fill-opacity="0.9"/>
<path d="M114.312 254.644L108.68 270H104.94L99.308 254.644H102.608L106.832 266.854L111.034 254.644H114.312ZM117.721 256.36C117.178 256.36 116.723 256.191 116.357 255.854C116.005 255.502 115.829 255.069 115.829 254.556C115.829 254.043 116.005 253.617 116.357 253.28C116.723 252.928 117.178 252.752 117.721 252.752C118.263 252.752 118.711 252.928 119.063 253.28C119.429 253.617 119.613 254.043 119.613 254.556C119.613 255.069 119.429 255.502 119.063 255.854C118.711 256.191 118.263 256.36 117.721 256.36ZM119.239 257.812V270H116.159V257.812H119.239ZM133.612 263.642C133.612 264.082 133.582 264.478 133.524 264.83H124.614C124.687 265.71 124.995 266.399 125.538 266.898C126.08 267.397 126.748 267.646 127.54 267.646C128.684 267.646 129.498 267.155 129.982 266.172H133.304C132.952 267.345 132.277 268.313 131.28 269.076C130.282 269.824 129.058 270.198 127.606 270.198C126.432 270.198 125.376 269.941 124.438 269.428C123.514 268.9 122.788 268.159 122.26 267.206C121.746 266.253 121.49 265.153 121.49 263.906C121.49 262.645 121.746 261.537 122.26 260.584C122.773 259.631 123.492 258.897 124.416 258.384C125.34 257.871 126.403 257.614 127.606 257.614C128.764 257.614 129.798 257.863 130.708 258.362C131.632 258.861 132.343 259.572 132.842 260.496C133.355 261.405 133.612 262.454 133.612 263.642ZM130.422 262.762C130.407 261.97 130.121 261.339 129.564 260.87C129.006 260.386 128.324 260.144 127.518 260.144C126.755 260.144 126.11 260.379 125.582 260.848C125.068 261.303 124.753 261.941 124.636 262.762H130.422ZM152.756 257.812L149.192 270H145.87L143.648 261.486L141.426 270H138.082L134.496 257.812H137.62L139.776 267.096L142.108 257.812H145.364L147.652 267.074L149.808 257.812H152.756Z" fill="black"/>
<path d="M81.758 299.59H75.07L73.838 303H71.726L77.27 287.754H79.58L85.102 303H82.99L81.758 299.59ZM81.186 297.962L78.414 290.218L75.642 297.962H81.186ZM89.5202 286.72V303H87.5182V286.72H89.5202ZM94.9343 286.72V303H92.9323V286.72H94.9343ZM111.89 295.102C112.447 295.19 112.953 295.417 113.408 295.784C113.877 296.151 114.244 296.605 114.508 297.148C114.786 297.691 114.926 298.27 114.926 298.886C114.926 299.663 114.728 300.367 114.332 300.998C113.936 301.614 113.356 302.105 112.594 302.472C111.846 302.824 110.958 303 109.932 303H104.212V287.666H109.712C110.753 287.666 111.64 287.842 112.374 288.194C113.107 288.531 113.657 288.993 114.024 289.58C114.39 290.167 114.574 290.827 114.574 291.56C114.574 292.469 114.324 293.225 113.826 293.826C113.342 294.413 112.696 294.838 111.89 295.102ZM106.214 294.288H109.58C110.518 294.288 111.244 294.068 111.758 293.628C112.271 293.188 112.528 292.579 112.528 291.802C112.528 291.025 112.271 290.416 111.758 289.976C111.244 289.536 110.504 289.316 109.536 289.316H106.214V294.288ZM109.756 301.35C110.753 301.35 111.53 301.115 112.088 300.646C112.645 300.177 112.924 299.524 112.924 298.688C112.924 297.837 112.63 297.17 112.044 296.686C111.457 296.187 110.672 295.938 109.69 295.938H106.214V301.35H109.756ZM119.706 292.902C120.058 292.213 120.556 291.677 121.202 291.296C121.862 290.915 122.661 290.724 123.6 290.724V292.792H123.072C120.828 292.792 119.706 294.009 119.706 296.444V303H117.704V290.944H119.706V292.902ZM125.163 296.928C125.163 295.696 125.412 294.618 125.911 293.694C126.409 292.755 127.091 292.029 127.957 291.516C128.837 291.003 129.812 290.746 130.883 290.746C131.939 290.746 132.855 290.973 133.633 291.428C134.41 291.883 134.989 292.455 135.371 293.144V290.944H137.395V303H135.371V300.756C134.975 301.46 134.381 302.047 133.589 302.516C132.811 302.971 131.902 303.198 130.861 303.198C129.79 303.198 128.822 302.934 127.957 302.406C127.091 301.878 126.409 301.137 125.911 300.184C125.412 299.231 125.163 298.145 125.163 296.928ZM135.371 296.95C135.371 296.041 135.187 295.249 134.821 294.574C134.454 293.899 133.955 293.386 133.325 293.034C132.709 292.667 132.027 292.484 131.279 292.484C130.531 292.484 129.849 292.66 129.233 293.012C128.617 293.364 128.125 293.877 127.759 294.552C127.392 295.227 127.209 296.019 127.209 296.928C127.209 297.852 127.392 298.659 127.759 299.348C128.125 300.023 128.617 300.543 129.233 300.91C129.849 301.262 130.531 301.438 131.279 301.438C132.027 301.438 132.709 301.262 133.325 300.91C133.955 300.543 134.454 300.023 134.821 299.348C135.187 298.659 135.371 297.859 135.371 296.95ZM146.652 290.724C148.119 290.724 149.307 291.171 150.216 292.066C151.125 292.946 151.58 294.222 151.58 295.894V303H149.6V296.18C149.6 294.977 149.299 294.061 148.698 293.43C148.097 292.785 147.275 292.462 146.234 292.462C145.178 292.462 144.335 292.792 143.704 293.452C143.088 294.112 142.78 295.073 142.78 296.334V303H140.778V290.944H142.78V292.66C143.176 292.044 143.711 291.567 144.386 291.23C145.075 290.893 145.831 290.724 146.652 290.724ZM154.102 296.928C154.102 295.696 154.352 294.618 154.85 293.694C155.349 292.755 156.031 292.029 156.896 291.516C157.776 291.003 158.759 290.746 159.844 290.746C160.783 290.746 161.656 290.966 162.462 291.406C163.269 291.831 163.885 292.396 164.31 293.1V286.72H166.334V303H164.31V300.734C163.914 301.453 163.328 302.047 162.55 302.516C161.773 302.971 160.864 303.198 159.822 303.198C158.752 303.198 157.776 302.934 156.896 302.406C156.031 301.878 155.349 301.137 154.85 300.184C154.352 299.231 154.102 298.145 154.102 296.928ZM164.31 296.95C164.31 296.041 164.127 295.249 163.76 294.574C163.394 293.899 162.895 293.386 162.264 293.034C161.648 292.667 160.966 292.484 160.218 292.484C159.47 292.484 158.788 292.66 158.172 293.012C157.556 293.364 157.065 293.877 156.698 294.552C156.332 295.227 156.148 296.019 156.148 296.928C156.148 297.852 156.332 298.659 156.698 299.348C157.065 300.023 157.556 300.543 158.172 300.91C158.788 301.262 159.47 301.438 160.218 301.438C160.966 301.438 161.648 301.262 162.264 300.91C162.895 300.543 163.394 300.023 163.76 299.348C164.127 298.659 164.31 297.859 164.31 296.95ZM173.985 303.198C173.061 303.198 172.233 303.044 171.499 302.736C170.766 302.413 170.187 301.973 169.761 301.416C169.336 300.844 169.101 300.191 169.057 299.458H171.125C171.184 300.059 171.463 300.551 171.961 300.932C172.475 301.313 173.142 301.504 173.963 301.504C174.726 301.504 175.327 301.335 175.767 300.998C176.207 300.661 176.427 300.235 176.427 299.722C176.427 299.194 176.193 298.805 175.723 298.556C175.254 298.292 174.528 298.035 173.545 297.786C172.651 297.551 171.917 297.317 171.345 297.082C170.788 296.833 170.304 296.473 169.893 296.004C169.497 295.52 169.299 294.889 169.299 294.112C169.299 293.496 169.483 292.931 169.849 292.418C170.216 291.905 170.737 291.501 171.411 291.208C172.086 290.9 172.856 290.746 173.721 290.746C175.056 290.746 176.134 291.083 176.955 291.758C177.777 292.433 178.217 293.357 178.275 294.53H176.273C176.229 293.899 175.973 293.393 175.503 293.012C175.049 292.631 174.433 292.44 173.655 292.44C172.937 292.44 172.365 292.594 171.939 292.902C171.514 293.21 171.301 293.613 171.301 294.112C171.301 294.508 171.426 294.838 171.675 295.102C171.939 295.351 172.262 295.557 172.643 295.718C173.039 295.865 173.582 296.033 174.271 296.224C175.137 296.459 175.841 296.693 176.383 296.928C176.926 297.148 177.388 297.485 177.769 297.94C178.165 298.395 178.371 298.989 178.385 299.722C178.385 300.382 178.202 300.976 177.835 301.504C177.469 302.032 176.948 302.45 176.273 302.758C175.613 303.051 174.851 303.198 173.985 303.198Z" fill="black"/>
</svg>
